<mxfile modified="2022-05-02T08:58:54.796Z" host="app.diagrams.net" agent="5.0 (Windows NT 10.0; Win64; x64) AppleWebKit/537.36 (KHTML, like Gecko) Chrome/100.0.4896.127 Safari/537.36 Edg/100.0.1185.50" etag="YroNzykyfheqFAfk6Iut" compressed="false" version="17.5.0" type="google">
  <diagram id="0ERP9ujGUp8IMH4fiTXf" name="Page-9">
    <mxGraphModel grid="1" page="1" gridSize="10" guides="1" tooltips="1" connect="1" arrows="1" fold="1" pageScale="1" pageWidth="827" pageHeight="1169" math="0" shadow="0">
      <root>
        <mxCell id="Zge-VtufrnMbziGjLQXj-0" />
        <mxCell id="Zge-VtufrnMbziGjLQXj-1" parent="Zge-VtufrnMbziGjLQXj-0" />
        <mxCell id="Zge-VtufrnMbziGjLQXj-2" value="&lt;font style=&quot;font-size: 12px&quot;&gt;Diagram: Delivery - IT Project Approach/Methodologies Comparison&lt;/font&gt;" style="text;strokeColor=none;fillColor=none;html=1;fontSize=24;fontStyle=2;verticalAlign=middle;align=left;shadow=0;glass=0;comic=0;opacity=30;fontColor=#808080;" vertex="1" parent="Zge-VtufrnMbziGjLQXj-1">
          <mxGeometry x="120" y="1200" width="560" height="40" as="geometry" />
        </mxCell>
        <UserObject label="" tooltip="ABOUT&#xa;&#xa;Over the past 30 years or so, multiple different approaches have been tried in order to deliver IT projects with the least risk of failure.&#xa;&#xa;SDLC and its sub-variants have generally fallen out of favour due to over planning to the nth detail. Only for it to be dated by the time it&#39;s built. &#xa;But Agile can fail just as easily as SLDC -- maybe even more so -- due to basic misunderstandings of what is meant by &quot;minimal documentation&quot; and &quot;fail fast&quot;.&#xa;&#xa;As a common sense check: would you get a mortgage for $2mil and give it to a crew of builders and say &quot;make me a house&quot;? Course not. You&#39;d maximize your chance of getting what you want by getting some high level blueprints so that you can discuss with the city how it will be integrated with the city&#39;s systems (electicity, water, sewage, storm water, roads, parking, schooling zones, etc.). Then you&#39;d refine the plans to allow a quantity surveyor to give you an estimate of the time/cost, and a bill of materials of how much concrete, and wood to order. You might start building about now, putting off ordering the faucets, tiles, sinks, lights till further down the track.&#xa;Use the same commone sense with Agile. Use the first sprints to design as far as you can how to get to an MVP quickly, understanding where everything will go even if you don&#39;t build it. YAGNI is about not building what is not needed. It&#39;s not about not planning for it.  &#xa;&#xa;Starting right away is a quick way to have MVP end up standing for &quot;Missing Valuable Planning&quot;, and wasting $2mil dollars on something that is incomplete and unmaintainable.&#xa;&#xa;" id="Zge-VtufrnMbziGjLQXj-3">
          <mxCell style="shape=image;html=1;verticalAlign=top;verticalLabelPosition=bottom;labelBackgroundColor=#ffffff;imageAspect=0;aspect=fixed;image=https://cdn1.iconfinder.com/data/icons/hawcons/32/699014-icon-28-information-128.png;shadow=0;dashed=0;fontFamily=Helvetica;fontSize=12;fontColor=#000000;align=center;strokeColor=#000000;fillColor=#505050;dashPattern=1 1;" vertex="1" parent="Zge-VtufrnMbziGjLQXj-1">
            <mxGeometry x="660" y="1220" width="20" height="20" as="geometry" />
          </mxCell>
        </UserObject>
        <mxCell id="Zge-VtufrnMbziGjLQXj-4" value="Recommended&lt;br&gt;(with Caveats)" style="rounded=0;whiteSpace=wrap;html=1;strokeWidth=1;fillColor=none;dashed=1;verticalAlign=top;align=center;spacingLeft=4;spacing=0;spacingTop=-5;fontColor=#CCCCCC;arcSize=16;absoluteArcSize=1;collapsible=0;container=1;recursiveResize=0;fontSize=10;shadow=0;labelBackgroundColor=none;strokeColor=#666666;" vertex="1" parent="Zge-VtufrnMbziGjLQXj-1">
          <mxGeometry x="480" y="170" width="100" height="1030" as="geometry" />
        </mxCell>
        <mxCell id="Zge-VtufrnMbziGjLQXj-5" value="&lt;font style=&quot;font-size: 10px&quot;&gt;Prototyping Model&lt;br style=&quot;font-size: 10px&quot;&gt;&lt;/font&gt;" style="rounded=0;whiteSpace=wrap;html=1;strokeWidth=2;fillColor=#E6E6E6;fontSize=10;align=center;horizontal=1;verticalAlign=middle;arcSize=6;container=0;absoluteArcSize=1;recursiveResize=0;" vertex="1" parent="Zge-VtufrnMbziGjLQXj-1">
          <mxGeometry x="590" y="200" width="80" height="40" as="geometry" />
        </mxCell>
        <mxCell id="Zge-VtufrnMbziGjLQXj-6" value="&lt;font&gt;&lt;font style=&quot;font-size: 9px&quot;&gt;Use when biz/tech domains are not well understood&lt;/font&gt;&lt;br style=&quot;font-size: 10px&quot;&gt;&lt;/font&gt;" style="rounded=0;whiteSpace=wrap;html=1;strokeWidth=1;fillColor=#FFFFFF;fontSize=10;align=center;horizontal=1;verticalAlign=middle;arcSize=6;container=0;absoluteArcSize=1;recursiveResize=0;" vertex="1" parent="Zge-VtufrnMbziGjLQXj-1">
          <mxGeometry x="590" y="250" width="80" height="40" as="geometry" />
        </mxCell>
        <mxCell id="Zge-VtufrnMbziGjLQXj-7" value="&lt;font style=&quot;font-size: 9px;&quot;&gt;&lt;font style=&quot;font-size: 9px&quot;&gt;Generally thrown away (not designed to be foundational)&lt;/font&gt;&lt;br style=&quot;font-size: 9px;&quot;&gt;&lt;/font&gt;" style="rounded=0;whiteSpace=wrap;html=1;strokeWidth=3;fillColor=#FFFFFF;fontSize=9;align=center;horizontal=1;verticalAlign=middle;arcSize=6;container=0;absoluteArcSize=1;recursiveResize=0;strokeColor=#990000;" vertex="1" parent="Zge-VtufrnMbziGjLQXj-1">
          <mxGeometry x="590" y="400" width="80" height="40" as="geometry" />
        </mxCell>
        <mxCell id="Zge-VtufrnMbziGjLQXj-8" value="&lt;font style=&quot;font-size: 9px&quot;&gt;&lt;font style=&quot;font-size: 9px&quot;&gt;High risk/poor value requirements&lt;/font&gt;&lt;br style=&quot;font-size: 9px&quot;&gt;&lt;/font&gt;" style="rounded=0;whiteSpace=wrap;html=1;strokeWidth=3;fillColor=#FFFFFF;fontSize=9;align=center;horizontal=1;verticalAlign=middle;arcSize=6;container=0;absoluteArcSize=1;recursiveResize=0;strokeColor=#990000;" vertex="1" parent="Zge-VtufrnMbziGjLQXj-1">
          <mxGeometry x="590" y="350" width="80" height="40" as="geometry" />
        </mxCell>
        <mxCell id="Zge-VtufrnMbziGjLQXj-9" value="&lt;font style=&quot;font-size: 9px;&quot;&gt;May derisk projects by investigating unknowns&amp;nbsp;&amp;nbsp;&lt;br style=&quot;font-size: 9px;&quot;&gt;&lt;/font&gt;" style="rounded=0;whiteSpace=wrap;html=1;strokeWidth=3;fillColor=#FFFFFF;fontSize=9;align=center;horizontal=1;verticalAlign=middle;arcSize=6;container=0;absoluteArcSize=1;recursiveResize=0;strokeColor=#00994D;" vertex="1" parent="Zge-VtufrnMbziGjLQXj-1">
          <mxGeometry x="590" y="600" width="80" height="40" as="geometry" />
        </mxCell>
        <mxCell id="Zge-VtufrnMbziGjLQXj-10" value="&lt;font style=&quot;font-size: 9px&quot;&gt;&lt;font style=&quot;font-size: 9px&quot;&gt;Tempts stakeholders into thinking its reusable/done.&lt;/font&gt;&lt;br style=&quot;font-size: 9px&quot;&gt;&lt;/font&gt;" style="rounded=0;whiteSpace=wrap;html=1;strokeWidth=3;fillColor=#FFFFFF;fontSize=9;align=center;horizontal=1;verticalAlign=middle;arcSize=6;container=0;absoluteArcSize=1;recursiveResize=0;strokeColor=#990000;" vertex="1" parent="Zge-VtufrnMbziGjLQXj-1">
          <mxGeometry x="590" y="450" width="80" height="40" as="geometry" />
        </mxCell>
        <mxCell id="Zge-VtufrnMbziGjLQXj-11" value="&lt;font&gt;&lt;font style=&quot;font-size: 9px&quot;&gt;Little to no Testing&lt;/font&gt;&lt;br style=&quot;font-size: 10px&quot;&gt;&lt;/font&gt;" style="rounded=0;whiteSpace=wrap;html=1;strokeWidth=3;fillColor=#FFFFFF;fontSize=10;align=center;horizontal=1;verticalAlign=middle;arcSize=6;container=0;absoluteArcSize=1;recursiveResize=0;strokeColor=#990000;" vertex="1" parent="Zge-VtufrnMbziGjLQXj-1">
          <mxGeometry x="590" y="500" width="80" height="40" as="geometry" />
        </mxCell>
        <mxCell id="Zge-VtufrnMbziGjLQXj-12" value="&lt;font&gt;&lt;font style=&quot;font-size: 9px&quot;&gt;No C&amp;amp;A required&lt;/font&gt;&lt;br style=&quot;font-size: 10px&quot;&gt;&lt;/font&gt;" style="rounded=0;whiteSpace=wrap;html=1;strokeWidth=3;fillColor=#FFFFFF;fontSize=10;align=center;horizontal=1;verticalAlign=middle;arcSize=6;container=0;absoluteArcSize=1;recursiveResize=0;strokeColor=#990000;" vertex="1" parent="Zge-VtufrnMbziGjLQXj-1">
          <mxGeometry x="590" y="550" width="80" height="40" as="geometry" />
        </mxCell>
        <mxCell id="Zge-VtufrnMbziGjLQXj-13" value="&lt;font&gt;&lt;font style=&quot;font-size: 9px&quot;&gt;Little to no PM involvement&lt;/font&gt;&lt;br style=&quot;font-size: 10px&quot;&gt;&lt;/font&gt;" style="rounded=0;whiteSpace=wrap;html=1;strokeWidth=3;fillColor=#FFFFFF;fontSize=10;align=center;horizontal=1;verticalAlign=middle;arcSize=6;container=0;absoluteArcSize=1;recursiveResize=0;strokeColor=#990000;" vertex="1" parent="Zge-VtufrnMbziGjLQXj-1">
          <mxGeometry x="590" y="300" width="80" height="40" as="geometry" />
        </mxCell>
        <mxCell id="Zge-VtufrnMbziGjLQXj-14" value="&lt;font style=&quot;font-size: 10px&quot;&gt;SDLC &lt;br&gt;(aka &quot;Waterfall&quot;)&lt;br style=&quot;font-size: 10px&quot;&gt;&lt;/font&gt;" style="rounded=0;whiteSpace=wrap;html=1;strokeWidth=2;fillColor=#E6E6E6;fontSize=10;align=center;horizontal=1;verticalAlign=middle;arcSize=6;container=0;absoluteArcSize=1;recursiveResize=0;" vertex="1" parent="Zge-VtufrnMbziGjLQXj-1">
          <mxGeometry x="120" y="200" width="80" height="40" as="geometry" />
        </mxCell>
        <mxCell id="Zge-VtufrnMbziGjLQXj-15" value="&lt;font style=&quot;font-size: 10px&quot;&gt;Iterative Waterfall&lt;br style=&quot;font-size: 10px&quot;&gt;&lt;/font&gt;" style="rounded=0;whiteSpace=wrap;html=1;strokeWidth=2;fillColor=#E6E6E6;fontSize=10;align=center;horizontal=1;verticalAlign=middle;arcSize=6;container=0;absoluteArcSize=1;recursiveResize=0;" vertex="1" parent="Zge-VtufrnMbziGjLQXj-1">
          <mxGeometry x="210" y="200" width="80" height="40" as="geometry" />
        </mxCell>
        <mxCell id="Zge-VtufrnMbziGjLQXj-16" value="&lt;font style=&quot;font-size: 10px&quot;&gt;Heavy Upfront&lt;br&gt;Discovery &amp;amp; Design Delays&lt;br style=&quot;font-size: 10px&quot;&gt;&lt;/font&gt;" style="rounded=0;whiteSpace=wrap;html=1;strokeWidth=3;fillColor=#FFFFFF;fontSize=10;align=center;horizontal=1;verticalAlign=middle;arcSize=6;container=0;absoluteArcSize=1;recursiveResize=0;strokeColor=#990000;" vertex="1" parent="Zge-VtufrnMbziGjLQXj-1">
          <mxGeometry x="120" y="350" width="80" height="40" as="geometry" />
        </mxCell>
        <mxCell id="Zge-VtufrnMbziGjLQXj-17" value="&lt;font&gt;&lt;font style=&quot;font-size: 9px&quot;&gt;Design may be Complete but not what users want&lt;/font&gt;&lt;br style=&quot;font-size: 10px&quot;&gt;&lt;/font&gt;" style="rounded=0;whiteSpace=wrap;html=1;strokeWidth=3;fillColor=#FFFFFF;fontSize=10;align=center;horizontal=1;verticalAlign=middle;arcSize=6;container=0;absoluteArcSize=1;recursiveResize=0;strokeColor=#990000;" vertex="1" parent="Zge-VtufrnMbziGjLQXj-1">
          <mxGeometry x="120" y="400" width="80" height="40" as="geometry" />
        </mxCell>
        <mxCell id="Zge-VtufrnMbziGjLQXj-18" value="&lt;font style=&quot;font-size: 10px;&quot;&gt;&lt;font style=&quot;font-size: 10px;&quot;&gt;Poor Ability to correct Errors&lt;/font&gt;&lt;br style=&quot;font-size: 10px;&quot;&gt;&lt;/font&gt;" style="rounded=0;whiteSpace=wrap;html=1;strokeWidth=3;fillColor=#FFFFFF;fontSize=10;align=center;horizontal=1;verticalAlign=middle;arcSize=6;container=0;absoluteArcSize=1;recursiveResize=0;strokeColor=#990000;" vertex="1" parent="Zge-VtufrnMbziGjLQXj-1">
          <mxGeometry x="120" y="450" width="80" height="40" as="geometry" />
        </mxCell>
        <mxCell id="Zge-VtufrnMbziGjLQXj-19" value="&lt;font style=&quot;font-size: 10px&quot;&gt;Heavy Upfront&lt;br&gt;Discovery &amp;amp; Design Delays&lt;br style=&quot;font-size: 10px&quot;&gt;&lt;/font&gt;" style="rounded=0;whiteSpace=wrap;html=1;strokeWidth=3;fillColor=#FFFFFF;fontSize=10;align=center;horizontal=1;verticalAlign=middle;arcSize=6;container=0;absoluteArcSize=1;recursiveResize=0;strokeColor=#990000;" vertex="1" parent="Zge-VtufrnMbziGjLQXj-1">
          <mxGeometry x="210" y="300" width="80" height="40" as="geometry" />
        </mxCell>
        <mxCell id="Zge-VtufrnMbziGjLQXj-20" value="&lt;font style=&quot;font-size: 10px&quot;&gt;Incremental/ Evolutionary Process Model&lt;br style=&quot;font-size: 10px&quot;&gt;&lt;/font&gt;" style="rounded=0;whiteSpace=wrap;html=1;strokeWidth=2;fillColor=#E6E6E6;fontSize=10;align=center;horizontal=1;verticalAlign=middle;arcSize=6;container=0;absoluteArcSize=1;recursiveResize=0;" vertex="1" parent="Zge-VtufrnMbziGjLQXj-1">
          <mxGeometry x="300" y="200" width="80" height="40" as="geometry" />
        </mxCell>
        <mxCell id="Zge-VtufrnMbziGjLQXj-21" value="&lt;font style=&quot;font-size: 10px&quot;&gt;Spiral Model&lt;br style=&quot;font-size: 10px&quot;&gt;&lt;/font&gt;" style="rounded=0;whiteSpace=wrap;html=1;strokeWidth=2;fillColor=#E6E6E6;fontSize=10;align=center;horizontal=1;verticalAlign=middle;arcSize=6;container=0;absoluteArcSize=1;recursiveResize=0;" vertex="1" parent="Zge-VtufrnMbziGjLQXj-1">
          <mxGeometry x="390" y="200" width="80" height="40" as="geometry" />
        </mxCell>
        <mxCell id="Zge-VtufrnMbziGjLQXj-22" value="&lt;font style=&quot;font-size: 9px;&quot;&gt;Suitable when biz/tech domains&amp;nbsp;are well understood&lt;br style=&quot;font-size: 9px;&quot;&gt;&lt;/font&gt;" style="rounded=0;whiteSpace=wrap;html=1;strokeWidth=1;fillColor=#FFFFFF;fontSize=9;align=center;horizontal=1;verticalAlign=middle;arcSize=6;container=0;absoluteArcSize=1;recursiveResize=0;" vertex="1" parent="Zge-VtufrnMbziGjLQXj-1">
          <mxGeometry x="210" y="250" width="80" height="40" as="geometry" />
        </mxCell>
        <mxCell id="Zge-VtufrnMbziGjLQXj-23" value="&lt;font style=&quot;font-size: 9px;&quot;&gt;Suitable when biz/tech domains&amp;nbsp;are well understood&lt;br style=&quot;font-size: 9px;&quot;&gt;&lt;/font&gt;" style="rounded=0;whiteSpace=wrap;html=1;strokeWidth=1;fillColor=#FFFFFF;fontSize=9;align=center;horizontal=1;verticalAlign=middle;arcSize=6;container=0;absoluteArcSize=1;recursiveResize=0;" vertex="1" parent="Zge-VtufrnMbziGjLQXj-1">
          <mxGeometry x="120" y="250" width="80" height="40" as="geometry" />
        </mxCell>
        <mxCell id="Zge-VtufrnMbziGjLQXj-24" value="&lt;font&gt;&lt;font style=&quot;font-size: 9px&quot;&gt;Suitable for projects that can delivered in stages&lt;/font&gt;&lt;br style=&quot;font-size: 10px&quot;&gt;&lt;/font&gt;" style="rounded=0;whiteSpace=wrap;html=1;strokeWidth=1;fillColor=#FFFFFF;fontSize=10;align=center;horizontal=1;verticalAlign=middle;arcSize=6;container=0;absoluteArcSize=1;recursiveResize=0;" vertex="1" parent="Zge-VtufrnMbziGjLQXj-1">
          <mxGeometry x="300" y="250" width="80" height="40" as="geometry" />
        </mxCell>
        <mxCell id="Zge-VtufrnMbziGjLQXj-25" value="&lt;font&gt;&lt;font style=&quot;font-size: 9px&quot;&gt;Relies i&lt;b&gt;&lt;i&gt;mprobably &lt;/i&gt;&lt;/b&gt;on perfect discover, definition, delivery.&lt;/font&gt;&lt;br style=&quot;font-size: 10px&quot;&gt;&lt;/font&gt;" style="rounded=0;whiteSpace=wrap;html=1;strokeWidth=3;fillColor=#FFFFFF;fontSize=10;align=center;horizontal=1;verticalAlign=middle;arcSize=6;container=0;absoluteArcSize=1;recursiveResize=0;strokeColor=#990000;" vertex="1" parent="Zge-VtufrnMbziGjLQXj-1">
          <mxGeometry x="120" y="500" width="80" height="40" as="geometry" />
        </mxCell>
        <mxCell id="Zge-VtufrnMbziGjLQXj-26" value="&lt;font style=&quot;font-size: 10px&quot;&gt;&lt;font style=&quot;font-size: 10px&quot;&gt;Diminishes customer involvement&lt;/font&gt;&lt;br style=&quot;font-size: 10px&quot;&gt;&lt;/font&gt;" style="rounded=0;whiteSpace=wrap;html=1;strokeWidth=3;fillColor=#FFFFFF;fontSize=10;align=center;horizontal=1;verticalAlign=middle;arcSize=6;container=0;absoluteArcSize=1;recursiveResize=0;strokeColor=#990000;" vertex="1" parent="Zge-VtufrnMbziGjLQXj-1">
          <mxGeometry x="120" y="550" width="80" height="40" as="geometry" />
        </mxCell>
        <mxCell id="Zge-VtufrnMbziGjLQXj-27" value="&lt;font&gt;&lt;font style=&quot;font-size: 9px&quot;&gt;Overall, more expensive&lt;/font&gt;&lt;br style=&quot;font-size: 10px&quot;&gt;&lt;/font&gt;" style="rounded=0;whiteSpace=wrap;html=1;strokeWidth=3;fillColor=#FFFFFF;fontSize=10;align=center;horizontal=1;verticalAlign=middle;arcSize=6;container=0;absoluteArcSize=1;recursiveResize=0;strokeColor=#990000;" vertex="1" parent="Zge-VtufrnMbziGjLQXj-1">
          <mxGeometry x="300" y="400" width="80" height="40" as="geometry" />
        </mxCell>
        <mxCell id="Zge-VtufrnMbziGjLQXj-28" value="&lt;font&gt;&lt;font style=&quot;font-size: 9px&quot;&gt;Requires&amp;nbsp; both meticulous and flexible planing&lt;/font&gt;&lt;br style=&quot;font-size: 10px&quot;&gt;&lt;/font&gt;" style="rounded=0;whiteSpace=wrap;html=1;strokeWidth=3;fillColor=#FFFFFF;fontSize=10;align=center;horizontal=1;verticalAlign=middle;arcSize=6;container=0;absoluteArcSize=1;recursiveResize=0;strokeColor=#990000;" vertex="1" parent="Zge-VtufrnMbziGjLQXj-1">
          <mxGeometry x="390" y="350" width="80" height="40" as="geometry" />
        </mxCell>
        <mxCell id="Zge-VtufrnMbziGjLQXj-29" value="&lt;font&gt;&lt;font style=&quot;font-size: 9px&quot;&gt;Overall, takes longer&lt;/font&gt;&lt;br style=&quot;font-size: 10px&quot;&gt;&lt;/font&gt;" style="rounded=0;whiteSpace=wrap;html=1;strokeWidth=3;fillColor=#FFFFFF;fontSize=10;align=center;horizontal=1;verticalAlign=middle;arcSize=6;container=0;absoluteArcSize=1;recursiveResize=0;strokeColor=#990000;" vertex="1" parent="Zge-VtufrnMbziGjLQXj-1">
          <mxGeometry x="300" y="350" width="80" height="40" as="geometry" />
        </mxCell>
        <mxCell id="Zge-VtufrnMbziGjLQXj-30" value="&lt;font&gt;&lt;font style=&quot;font-size: 9px&quot;&gt;Not many projects can be delivered in stages&lt;/font&gt;&lt;br style=&quot;font-size: 10px&quot;&gt;&lt;/font&gt;" style="rounded=0;whiteSpace=wrap;html=1;strokeWidth=3;fillColor=#FFFFFF;fontSize=10;align=center;horizontal=1;verticalAlign=middle;arcSize=6;container=0;absoluteArcSize=1;recursiveResize=0;strokeColor=#990000;" vertex="1" parent="Zge-VtufrnMbziGjLQXj-1">
          <mxGeometry x="300" y="300" width="80" height="40" as="geometry" />
        </mxCell>
        <mxCell id="Zge-VtufrnMbziGjLQXj-31" value="&lt;font style=&quot;font-size: 10px&quot;&gt;Gets Product in front of users faster&lt;br style=&quot;font-size: 10px&quot;&gt;&lt;/font&gt;" style="rounded=0;whiteSpace=wrap;html=1;strokeWidth=3;fillColor=#FFFFFF;fontSize=10;align=center;horizontal=1;verticalAlign=middle;arcSize=6;container=0;absoluteArcSize=1;recursiveResize=0;strokeColor=#00994D;" vertex="1" parent="Zge-VtufrnMbziGjLQXj-1">
          <mxGeometry x="300" y="750" width="80" height="40" as="geometry" />
        </mxCell>
        <mxCell id="Zge-VtufrnMbziGjLQXj-32" value="&lt;font style=&quot;font-size: 10px&quot;&gt;Applies feedback, &lt;br&gt;in next stage&lt;br style=&quot;font-size: 10px&quot;&gt;&lt;/font&gt;" style="rounded=0;whiteSpace=wrap;html=1;strokeWidth=3;fillColor=#FFFFFF;fontSize=10;align=center;horizontal=1;verticalAlign=middle;arcSize=6;container=0;absoluteArcSize=1;recursiveResize=0;strokeColor=#00994D;" vertex="1" parent="Zge-VtufrnMbziGjLQXj-1">
          <mxGeometry x="300" y="700" width="80" height="40" as="geometry" />
        </mxCell>
        <mxCell id="Zge-VtufrnMbziGjLQXj-33" value="&lt;font style=&quot;font-size: 10px&quot;&gt;Applies feedback, &lt;br&gt;in next iteration&lt;br style=&quot;font-size: 10px&quot;&gt;&lt;/font&gt;" style="rounded=0;whiteSpace=wrap;html=1;strokeWidth=3;fillColor=#FFFFFF;fontSize=10;align=center;horizontal=1;verticalAlign=middle;arcSize=6;container=0;absoluteArcSize=1;recursiveResize=0;strokeColor=#00994D;" vertex="1" parent="Zge-VtufrnMbziGjLQXj-1">
          <mxGeometry x="210" y="850" width="80" height="40" as="geometry" />
        </mxCell>
        <mxCell id="Zge-VtufrnMbziGjLQXj-34" value="&lt;font style=&quot;font-size: 10px&quot;&gt;&lt;font style=&quot;font-size: 10px&quot;&gt;Keeps customer at distance&lt;/font&gt;&lt;br style=&quot;font-size: 10px&quot;&gt;&lt;/font&gt;" style="rounded=0;whiteSpace=wrap;html=1;strokeWidth=3;fillColor=#FFFFFF;fontSize=10;align=center;horizontal=1;verticalAlign=middle;arcSize=6;container=0;absoluteArcSize=1;recursiveResize=0;strokeColor=#990000;" vertex="1" parent="Zge-VtufrnMbziGjLQXj-1">
          <mxGeometry x="210" y="350" width="80" height="40" as="geometry" />
        </mxCell>
        <mxCell id="Zge-VtufrnMbziGjLQXj-35" value="&lt;font style=&quot;font-size: 10px&quot;&gt;Not delivered to Users quickly&lt;br style=&quot;font-size: 10px&quot;&gt;&lt;/font&gt;" style="rounded=0;whiteSpace=wrap;html=1;strokeWidth=3;fillColor=#FFFFFF;fontSize=10;align=center;horizontal=1;verticalAlign=middle;arcSize=6;container=0;absoluteArcSize=1;recursiveResize=0;strokeColor=#990000;" vertex="1" parent="Zge-VtufrnMbziGjLQXj-1">
          <mxGeometry x="120" y="600" width="80" height="40" as="geometry" />
        </mxCell>
        <mxCell id="Zge-VtufrnMbziGjLQXj-36" value="&lt;font style=&quot;font-size: 10px&quot;&gt;Not delivered to Users quickly&lt;br style=&quot;font-size: 10px&quot;&gt;&lt;/font&gt;" style="rounded=0;whiteSpace=wrap;html=1;strokeWidth=3;fillColor=#FFFFFF;fontSize=10;align=center;horizontal=1;verticalAlign=middle;arcSize=6;container=0;absoluteArcSize=1;recursiveResize=0;strokeColor=#990000;" vertex="1" parent="Zge-VtufrnMbziGjLQXj-1">
          <mxGeometry x="210" y="400" width="80" height="40" as="geometry" />
        </mxCell>
        <mxCell id="Zge-VtufrnMbziGjLQXj-37" value="&lt;font style=&quot;font-size: 10px&quot;&gt;Requirements has &lt;u&gt;&lt;i&gt;some&lt;/i&gt;&lt;/u&gt; better weighed across stakeholders&lt;br style=&quot;font-size: 10px&quot;&gt;&lt;/font&gt;" style="rounded=0;whiteSpace=wrap;html=1;strokeWidth=3;fillColor=#FFFFFF;fontSize=10;align=center;horizontal=1;verticalAlign=middle;arcSize=6;container=0;absoluteArcSize=1;recursiveResize=0;strokeColor=#00994D;" vertex="1" parent="Zge-VtufrnMbziGjLQXj-1">
          <mxGeometry x="120" y="1000" width="80" height="40" as="geometry" />
        </mxCell>
        <mxCell id="Zge-VtufrnMbziGjLQXj-38" value="&lt;font style=&quot;font-size: 10px&quot;&gt;Testing &amp;amp; Dev may improve (but doubt it)&amp;nbsp;&lt;br style=&quot;font-size: 10px&quot;&gt;&lt;/font&gt;" style="rounded=0;whiteSpace=wrap;html=1;strokeWidth=3;fillColor=#FFFFFF;fontSize=10;align=center;horizontal=1;verticalAlign=middle;arcSize=6;container=0;absoluteArcSize=1;recursiveResize=0;strokeColor=#CC6600;" vertex="1" parent="Zge-VtufrnMbziGjLQXj-1">
          <mxGeometry x="300" y="450" width="80" height="40" as="geometry" />
        </mxCell>
        <mxCell id="Zge-VtufrnMbziGjLQXj-39" value="&lt;font style=&quot;font-size: 10px&quot;&gt;Requirements has &lt;u&gt;&lt;i&gt;some&lt;/i&gt;&lt;/u&gt; better weighed across stakeholders&lt;br style=&quot;font-size: 10px&quot;&gt;&lt;/font&gt;" style="rounded=0;whiteSpace=wrap;html=1;strokeWidth=3;fillColor=#FFFFFF;fontSize=10;align=center;horizontal=1;verticalAlign=middle;arcSize=6;container=0;absoluteArcSize=1;recursiveResize=0;strokeColor=#00994D;" vertex="1" parent="Zge-VtufrnMbziGjLQXj-1">
          <mxGeometry x="300" y="650" width="80" height="40" as="geometry" />
        </mxCell>
        <mxCell id="Zge-VtufrnMbziGjLQXj-40" value="&lt;font style=&quot;font-size: 10px&quot;&gt;Testing is adverserial to Development&lt;br style=&quot;font-size: 10px&quot;&gt;&lt;/font&gt;" style="rounded=0;whiteSpace=wrap;html=1;strokeWidth=3;fillColor=#FFFFFF;fontSize=10;align=center;horizontal=1;verticalAlign=middle;arcSize=6;container=0;absoluteArcSize=1;recursiveResize=0;strokeColor=#990000;" vertex="1" parent="Zge-VtufrnMbziGjLQXj-1">
          <mxGeometry x="120" y="650" width="80" height="40" as="geometry" />
        </mxCell>
        <mxCell id="Zge-VtufrnMbziGjLQXj-41" value="&lt;font style=&quot;font-size: 10px&quot;&gt;Testing is adverserial to Development&lt;br style=&quot;font-size: 10px&quot;&gt;&lt;/font&gt;" style="rounded=0;whiteSpace=wrap;html=1;strokeWidth=3;fillColor=#FFFFFF;fontSize=10;align=center;horizontal=1;verticalAlign=middle;arcSize=6;container=0;absoluteArcSize=1;recursiveResize=0;strokeColor=#990000;" vertex="1" parent="Zge-VtufrnMbziGjLQXj-1">
          <mxGeometry x="210" y="450" width="80" height="40" as="geometry" />
        </mxCell>
        <mxCell id="Zge-VtufrnMbziGjLQXj-42" value="&lt;font style=&quot;font-size: 10px&quot;&gt;Testing is adverserial to Development&lt;br style=&quot;font-size: 10px&quot;&gt;&lt;/font&gt;" style="rounded=0;whiteSpace=wrap;html=1;strokeWidth=3;fillColor=#FFFFFF;fontSize=10;align=center;horizontal=1;verticalAlign=middle;arcSize=6;container=0;absoluteArcSize=1;recursiveResize=0;strokeColor=#990000;" vertex="1" parent="Zge-VtufrnMbziGjLQXj-1">
          <mxGeometry x="210" y="500" width="80" height="40" as="geometry" />
        </mxCell>
        <mxCell id="Zge-VtufrnMbziGjLQXj-43" value="&lt;font style=&quot;font-size: 10px&quot;&gt;Defects found late impact release dates&lt;br style=&quot;font-size: 10px&quot;&gt;&lt;/font&gt;" style="rounded=0;whiteSpace=wrap;html=1;strokeWidth=3;fillColor=#FFFFFF;fontSize=10;align=center;horizontal=1;verticalAlign=middle;arcSize=6;container=0;absoluteArcSize=1;recursiveResize=0;strokeColor=#990000;" vertex="1" parent="Zge-VtufrnMbziGjLQXj-1">
          <mxGeometry x="120" y="700" width="80" height="40" as="geometry" />
        </mxCell>
        <mxCell id="Zge-VtufrnMbziGjLQXj-44" value="&lt;font style=&quot;font-size: 10px&quot;&gt;Defects found late impact release dates&lt;br style=&quot;font-size: 10px&quot;&gt;&lt;/font&gt;" style="rounded=0;whiteSpace=wrap;html=1;strokeWidth=3;fillColor=#FFFFFF;fontSize=10;align=center;horizontal=1;verticalAlign=middle;arcSize=6;container=0;absoluteArcSize=1;recursiveResize=0;strokeColor=#990000;" vertex="1" parent="Zge-VtufrnMbziGjLQXj-1">
          <mxGeometry x="210" y="550" width="80" height="40" as="geometry" />
        </mxCell>
        <mxCell id="Zge-VtufrnMbziGjLQXj-45" value="&lt;font style=&quot;font-size: 10px&quot;&gt;Requirements has &lt;u&gt;&lt;i&gt;some&lt;/i&gt;&lt;/u&gt; better weighed across stakeholders&lt;br style=&quot;font-size: 10px&quot;&gt;&lt;/font&gt;" style="rounded=0;whiteSpace=wrap;html=1;strokeWidth=3;fillColor=#FFFFFF;fontSize=10;align=center;horizontal=1;verticalAlign=middle;arcSize=6;container=0;absoluteArcSize=1;recursiveResize=0;strokeColor=#00994D;" vertex="1" parent="Zge-VtufrnMbziGjLQXj-1">
          <mxGeometry x="210" y="800" width="80" height="40" as="geometry" />
        </mxCell>
        <mxCell id="Zge-VtufrnMbziGjLQXj-46" value="&lt;font style=&quot;font-size: 10px&quot;&gt;Security &amp;amp; Accreditation is Big Process&lt;br style=&quot;font-size: 10px&quot;&gt;&lt;/font&gt;" style="rounded=0;whiteSpace=wrap;html=1;strokeWidth=3;fillColor=#FFFFFF;fontSize=10;align=center;horizontal=1;verticalAlign=middle;arcSize=6;container=0;absoluteArcSize=1;recursiveResize=0;strokeColor=#990000;" vertex="1" parent="Zge-VtufrnMbziGjLQXj-1">
          <mxGeometry x="120" y="750" width="80" height="40" as="geometry" />
        </mxCell>
        <mxCell id="Zge-VtufrnMbziGjLQXj-47" value="&lt;font style=&quot;font-size: 10px&quot;&gt;C&amp;amp;A is Big,upfront, then smaller&lt;br style=&quot;font-size: 10px&quot;&gt;&lt;/font&gt;" style="rounded=0;whiteSpace=wrap;html=1;strokeWidth=3;fillColor=#FFFFFF;fontSize=10;align=center;horizontal=1;verticalAlign=middle;arcSize=6;container=0;absoluteArcSize=1;recursiveResize=0;strokeColor=#990000;" vertex="1" parent="Zge-VtufrnMbziGjLQXj-1">
          <mxGeometry x="210" y="600" width="80" height="40" as="geometry" />
        </mxCell>
        <mxCell id="Zge-VtufrnMbziGjLQXj-48" value="&lt;font style=&quot;font-size: 10px&quot;&gt;Change Control and Comms are better&lt;br style=&quot;font-size: 10px&quot;&gt;&lt;/font&gt;" style="rounded=0;whiteSpace=wrap;html=1;strokeWidth=3;fillColor=#FFFFFF;fontSize=10;align=center;horizontal=1;verticalAlign=middle;arcSize=6;container=0;absoluteArcSize=1;recursiveResize=0;strokeColor=#00994D;" vertex="1" parent="Zge-VtufrnMbziGjLQXj-1">
          <mxGeometry x="120" y="1050" width="80" height="40" as="geometry" />
        </mxCell>
        <mxCell id="Zge-VtufrnMbziGjLQXj-49" value="&lt;font style=&quot;font-size: 10px&quot;&gt;Change Control and Comms are better&lt;br style=&quot;font-size: 10px&quot;&gt;&lt;/font&gt;" style="rounded=0;whiteSpace=wrap;html=1;strokeWidth=3;fillColor=#FFFFFF;fontSize=10;align=center;horizontal=1;verticalAlign=middle;arcSize=6;container=0;absoluteArcSize=1;recursiveResize=0;strokeColor=#00994D;" vertex="1" parent="Zge-VtufrnMbziGjLQXj-1">
          <mxGeometry x="210" y="900" width="80" height="40" as="geometry" />
        </mxCell>
        <mxCell id="Zge-VtufrnMbziGjLQXj-50" value="&lt;font style=&quot;font-size: 10px&quot;&gt;Change Control and Comms are ok&lt;br style=&quot;font-size: 10px&quot;&gt;&lt;/font&gt;" style="rounded=0;whiteSpace=wrap;html=1;strokeWidth=3;fillColor=#FFFFFF;fontSize=10;align=center;horizontal=1;verticalAlign=middle;arcSize=6;container=0;absoluteArcSize=1;recursiveResize=0;strokeColor=#00994D;" vertex="1" parent="Zge-VtufrnMbziGjLQXj-1">
          <mxGeometry x="300" y="800" width="80" height="40" as="geometry" />
        </mxCell>
        <mxCell id="Zge-VtufrnMbziGjLQXj-51" value="&lt;font&gt;&lt;font style=&quot;font-size: 9px&quot;&gt;PMs may micro-manage based on outdated&amp;nbsp; info&lt;/font&gt;&lt;br style=&quot;font-size: 10px&quot;&gt;&lt;/font&gt;" style="rounded=0;whiteSpace=wrap;html=1;strokeWidth=3;fillColor=#FFFFFF;fontSize=10;align=center;horizontal=1;verticalAlign=middle;arcSize=6;container=0;absoluteArcSize=1;recursiveResize=0;strokeColor=#990000;" vertex="1" parent="Zge-VtufrnMbziGjLQXj-1">
          <mxGeometry x="120" y="300" width="80" height="40" as="geometry" />
        </mxCell>
        <mxCell id="Zge-VtufrnMbziGjLQXj-52" value="&lt;font&gt;&lt;font style=&quot;font-size: 9px&quot;&gt;Most complex delivery model&lt;/font&gt;&lt;br style=&quot;font-size: 10px&quot;&gt;&lt;/font&gt;" style="rounded=0;whiteSpace=wrap;html=1;strokeWidth=3;fillColor=#FFFFFF;fontSize=10;align=center;horizontal=1;verticalAlign=middle;arcSize=6;container=0;absoluteArcSize=1;recursiveResize=0;strokeColor=#990000;" vertex="1" parent="Zge-VtufrnMbziGjLQXj-1">
          <mxGeometry x="390" y="300" width="80" height="40" as="geometry" />
        </mxCell>
        <mxCell id="Zge-VtufrnMbziGjLQXj-53" value="&lt;font style=&quot;font-size: 9px&quot;&gt;&lt;font style=&quot;font-size: 9px&quot;&gt;Suitable for complex projects with evolving requirements&lt;/font&gt;&lt;br style=&quot;font-size: 9px&quot;&gt;&lt;/font&gt;" style="rounded=0;whiteSpace=wrap;html=1;strokeWidth=1;fillColor=#FFFFFF;fontSize=9;align=center;horizontal=1;verticalAlign=middle;arcSize=6;container=0;absoluteArcSize=1;recursiveResize=0;" vertex="1" parent="Zge-VtufrnMbziGjLQXj-1">
          <mxGeometry x="390" y="250" width="80" height="40" as="geometry" />
        </mxCell>
        <mxCell id="Zge-VtufrnMbziGjLQXj-54" value="&lt;font style=&quot;font-size: 10px&quot;&gt;Heavy Upfront&lt;br&gt;Discovery &amp;amp; Design Delays&lt;br style=&quot;font-size: 10px&quot;&gt;&lt;/font&gt;" style="rounded=0;whiteSpace=wrap;html=1;strokeWidth=3;fillColor=#FFFFFF;fontSize=10;align=center;horizontal=1;verticalAlign=middle;arcSize=6;container=0;absoluteArcSize=1;recursiveResize=0;strokeColor=#990000;" vertex="1" parent="Zge-VtufrnMbziGjLQXj-1">
          <mxGeometry x="390" y="400" width="80" height="40" as="geometry" />
        </mxCell>
        <mxCell id="Zge-VtufrnMbziGjLQXj-55" value="&lt;font style=&quot;font-size: 10px&quot;&gt;Applies feedback, &lt;br&gt;in next stage&lt;br style=&quot;font-size: 10px&quot;&gt;&lt;/font&gt;" style="rounded=0;whiteSpace=wrap;html=1;strokeWidth=3;fillColor=#FFFFFF;fontSize=10;align=center;horizontal=1;verticalAlign=middle;arcSize=6;container=0;absoluteArcSize=1;recursiveResize=0;strokeColor=#00994D;" vertex="1" parent="Zge-VtufrnMbziGjLQXj-1">
          <mxGeometry x="390" y="600" width="80" height="40" as="geometry" />
        </mxCell>
        <mxCell id="Zge-VtufrnMbziGjLQXj-56" value="&lt;font style=&quot;font-size: 10px&quot;&gt;C&amp;amp;A is Big,upfront, then smaller&lt;br style=&quot;font-size: 10px&quot;&gt;&lt;/font&gt;" style="rounded=0;whiteSpace=wrap;html=1;strokeWidth=3;fillColor=#FFFFFF;fontSize=10;align=center;horizontal=1;verticalAlign=middle;arcSize=6;container=0;absoluteArcSize=1;recursiveResize=0;strokeColor=#990000;" vertex="1" parent="Zge-VtufrnMbziGjLQXj-1">
          <mxGeometry x="390" y="450" width="80" height="40" as="geometry" />
        </mxCell>
        <mxCell id="Zge-VtufrnMbziGjLQXj-57" value="&lt;font style=&quot;font-size: 10px&quot;&gt;Requirements has &lt;u&gt;&lt;i&gt;some&lt;/i&gt;&lt;/u&gt; better weighed across stakeholders&lt;br style=&quot;font-size: 10px&quot;&gt;&lt;/font&gt;" style="rounded=0;whiteSpace=wrap;html=1;strokeWidth=3;fillColor=#FFFFFF;fontSize=10;align=center;horizontal=1;verticalAlign=middle;arcSize=6;container=0;absoluteArcSize=1;recursiveResize=0;strokeColor=#00994D;" vertex="1" parent="Zge-VtufrnMbziGjLQXj-1">
          <mxGeometry x="390" y="650" width="80" height="40" as="geometry" />
        </mxCell>
        <mxCell id="Zge-VtufrnMbziGjLQXj-58" value="&lt;font style=&quot;font-size: 10px&quot;&gt;Change Control and Comms are better&lt;br style=&quot;font-size: 10px&quot;&gt;&lt;/font&gt;" style="rounded=0;whiteSpace=wrap;html=1;strokeWidth=3;fillColor=#FFFFFF;fontSize=10;align=center;horizontal=1;verticalAlign=middle;arcSize=6;container=0;absoluteArcSize=1;recursiveResize=0;strokeColor=#00994D;" vertex="1" parent="Zge-VtufrnMbziGjLQXj-1">
          <mxGeometry x="390" y="700" width="80" height="40" as="geometry" />
        </mxCell>
        <mxCell id="Zge-VtufrnMbziGjLQXj-59" value="&lt;font style=&quot;font-size: 10px&quot;&gt;Testing &amp;amp; Dev may improve (but doubt it)&amp;nbsp;&lt;br style=&quot;font-size: 10px&quot;&gt;&lt;/font&gt;" style="rounded=0;whiteSpace=wrap;html=1;strokeWidth=3;fillColor=#FFFFFF;fontSize=10;align=center;horizontal=1;verticalAlign=middle;arcSize=6;container=0;absoluteArcSize=1;recursiveResize=0;strokeColor=#CC6600;" vertex="1" parent="Zge-VtufrnMbziGjLQXj-1">
          <mxGeometry x="390" y="500" width="80" height="40" as="geometry" />
        </mxCell>
        <mxCell id="Zge-VtufrnMbziGjLQXj-60" value="&lt;font style=&quot;font-size: 10px&quot;&gt;Better chance of CIA&amp;amp;P being designed for&lt;br style=&quot;font-size: 10px&quot;&gt;&lt;/font&gt;" style="rounded=0;whiteSpace=wrap;html=1;strokeWidth=3;fillColor=#FFFFFF;fontSize=10;align=center;horizontal=1;verticalAlign=middle;arcSize=6;container=0;absoluteArcSize=1;recursiveResize=0;strokeColor=#00994D;" vertex="1" parent="Zge-VtufrnMbziGjLQXj-1">
          <mxGeometry x="120" y="950" width="80" height="40" as="geometry" />
        </mxCell>
        <mxCell id="Zge-VtufrnMbziGjLQXj-61" value="&lt;font style=&quot;font-size: 10px&quot;&gt;High chance of Oldie but Goldie Design Patterns&lt;br style=&quot;font-size: 10px&quot;&gt;&lt;/font&gt;" style="rounded=0;whiteSpace=wrap;html=1;strokeWidth=3;fillColor=#FFFFFF;fontSize=10;align=center;horizontal=1;verticalAlign=middle;arcSize=6;container=0;absoluteArcSize=1;recursiveResize=0;strokeColor=#CC6600;" vertex="1" parent="Zge-VtufrnMbziGjLQXj-1">
          <mxGeometry x="120" y="800.1000366210938" width="80" height="40" as="geometry" />
        </mxCell>
        <mxCell id="Zge-VtufrnMbziGjLQXj-62" value="&lt;font style=&quot;font-size: 10px&quot;&gt;Low chance of being new &amp;amp; market impacting&lt;br style=&quot;font-size: 10px&quot;&gt;&lt;/font&gt;" style="rounded=0;whiteSpace=wrap;html=1;strokeWidth=3;fillColor=#FFFFFF;fontSize=10;align=center;horizontal=1;verticalAlign=middle;arcSize=6;container=0;absoluteArcSize=1;recursiveResize=0;strokeColor=#CC6600;" vertex="1" parent="Zge-VtufrnMbziGjLQXj-1">
          <mxGeometry x="120" y="850.1000366210938" width="80" height="40" as="geometry" />
        </mxCell>
        <mxCell id="Zge-VtufrnMbziGjLQXj-63" value="&lt;font style=&quot;font-size: 10px&quot;&gt;High chance of Oldie but Goldie Design Patterns&lt;br style=&quot;font-size: 10px&quot;&gt;&lt;/font&gt;" style="rounded=0;whiteSpace=wrap;html=1;strokeWidth=3;fillColor=#FFFFFF;fontSize=10;align=center;horizontal=1;verticalAlign=middle;arcSize=6;container=0;absoluteArcSize=1;recursiveResize=0;strokeColor=#CC6600;" vertex="1" parent="Zge-VtufrnMbziGjLQXj-1">
          <mxGeometry x="210" y="650.1000366210938" width="80" height="40" as="geometry" />
        </mxCell>
        <mxCell id="Zge-VtufrnMbziGjLQXj-64" value="&lt;font style=&quot;font-size: 10px&quot;&gt;Low chance of being new &amp;amp; market impacting&lt;br style=&quot;font-size: 10px&quot;&gt;&lt;/font&gt;" style="rounded=0;whiteSpace=wrap;html=1;strokeWidth=3;fillColor=#FFFFFF;fontSize=10;align=center;horizontal=1;verticalAlign=middle;arcSize=6;container=0;absoluteArcSize=1;recursiveResize=0;strokeColor=#CC6600;" vertex="1" parent="Zge-VtufrnMbziGjLQXj-1">
          <mxGeometry x="210" y="700.1000366210938" width="80" height="40" as="geometry" />
        </mxCell>
        <mxCell id="Zge-VtufrnMbziGjLQXj-65" value="&lt;font style=&quot;font-size: 10px&quot;&gt;High chance of Oldie but Goldie Design Patterns&lt;br style=&quot;font-size: 10px&quot;&gt;&lt;/font&gt;" style="rounded=0;whiteSpace=wrap;html=1;strokeWidth=3;fillColor=#FFFFFF;fontSize=10;align=center;horizontal=1;verticalAlign=middle;arcSize=6;container=0;absoluteArcSize=1;recursiveResize=0;strokeColor=#CC6600;" vertex="1" parent="Zge-VtufrnMbziGjLQXj-1">
          <mxGeometry x="300" y="500.10003662109375" width="80" height="40" as="geometry" />
        </mxCell>
        <mxCell id="Zge-VtufrnMbziGjLQXj-66" value="&lt;font style=&quot;font-size: 10px&quot;&gt;Low chance of being new &amp;amp; market impacting&lt;br style=&quot;font-size: 10px&quot;&gt;&lt;/font&gt;" style="rounded=0;whiteSpace=wrap;html=1;strokeWidth=3;fillColor=#FFFFFF;fontSize=10;align=center;horizontal=1;verticalAlign=middle;arcSize=6;container=0;absoluteArcSize=1;recursiveResize=0;strokeColor=#CC6600;" vertex="1" parent="Zge-VtufrnMbziGjLQXj-1">
          <mxGeometry x="300" y="550.1000366210938" width="80" height="40" as="geometry" />
        </mxCell>
        <mxCell id="Zge-VtufrnMbziGjLQXj-67" value="&lt;font style=&quot;font-size: 9px&quot;&gt;Requires approach change in Change Control &amp;amp; Comms&lt;br style=&quot;font-size: 9px&quot;&gt;&lt;/font&gt;" style="rounded=0;whiteSpace=wrap;html=1;strokeWidth=3;fillColor=#FFFFFF;fontSize=9;align=center;horizontal=1;verticalAlign=middle;arcSize=6;container=0;absoluteArcSize=1;recursiveResize=0;strokeColor=#808080;" vertex="1" parent="Zge-VtufrnMbziGjLQXj-1">
          <mxGeometry x="390" y="750" width="80" height="40" as="geometry" />
        </mxCell>
        <mxCell id="Zge-VtufrnMbziGjLQXj-68" value="&lt;font style=&quot;font-size: 9px&quot;&gt;Requires approach change to C&amp;amp;A process&lt;br style=&quot;font-size: 9px&quot;&gt;&lt;/font&gt;" style="rounded=0;whiteSpace=wrap;html=1;strokeWidth=3;fillColor=#FFFFFF;fontSize=9;align=center;horizontal=1;verticalAlign=middle;arcSize=6;container=0;absoluteArcSize=1;recursiveResize=0;strokeColor=#808080;" vertex="1" parent="Zge-VtufrnMbziGjLQXj-1">
          <mxGeometry x="390" y="800" width="80" height="40" as="geometry" />
        </mxCell>
        <mxCell id="Zge-VtufrnMbziGjLQXj-69" value="&lt;font style=&quot;font-size: 10px&quot;&gt;Gets Product in front of users faster&lt;br style=&quot;font-size: 10px&quot;&gt;&lt;/font&gt;" style="rounded=0;whiteSpace=wrap;html=1;strokeWidth=3;fillColor=#FFFFFF;fontSize=10;align=center;horizontal=1;verticalAlign=middle;arcSize=6;container=0;absoluteArcSize=1;recursiveResize=0;strokeColor=#00994D;" vertex="1" parent="Zge-VtufrnMbziGjLQXj-1">
          <mxGeometry x="390" y="850" width="80" height="40" as="geometry" />
        </mxCell>
        <mxCell id="Zge-VtufrnMbziGjLQXj-70" value="&lt;font style=&quot;font-size: 10px&quot;&gt;Quality usually maintained&lt;br style=&quot;font-size: 10px&quot;&gt;&lt;/font&gt;" style="rounded=0;whiteSpace=wrap;html=1;strokeWidth=3;fillColor=#FFFFFF;fontSize=10;align=center;horizontal=1;verticalAlign=middle;arcSize=6;container=0;absoluteArcSize=1;recursiveResize=0;strokeColor=#00994D;" vertex="1" parent="Zge-VtufrnMbziGjLQXj-1">
          <mxGeometry x="120" y="900" width="80" height="40" as="geometry" />
        </mxCell>
        <mxCell id="Zge-VtufrnMbziGjLQXj-71" value="&lt;font style=&quot;font-size: 10px&quot;&gt;Quality usually maintained&lt;br style=&quot;font-size: 10px&quot;&gt;&lt;/font&gt;" style="rounded=0;whiteSpace=wrap;html=1;strokeWidth=3;fillColor=#FFFFFF;fontSize=10;align=center;horizontal=1;verticalAlign=middle;arcSize=6;container=0;absoluteArcSize=1;recursiveResize=0;strokeColor=#00994D;" vertex="1" parent="Zge-VtufrnMbziGjLQXj-1">
          <mxGeometry x="210" y="750" width="80" height="40" as="geometry" />
        </mxCell>
        <mxCell id="Zge-VtufrnMbziGjLQXj-72" value="&lt;font style=&quot;font-size: 10px&quot;&gt;Quality usually maintained&lt;br style=&quot;font-size: 10px&quot;&gt;&lt;/font&gt;" style="rounded=0;whiteSpace=wrap;html=1;strokeWidth=3;fillColor=#FFFFFF;fontSize=10;align=center;horizontal=1;verticalAlign=middle;arcSize=6;container=0;absoluteArcSize=1;recursiveResize=0;strokeColor=#00994D;" vertex="1" parent="Zge-VtufrnMbziGjLQXj-1">
          <mxGeometry x="300" y="600" width="80" height="40" as="geometry" />
        </mxCell>
        <mxCell id="Zge-VtufrnMbziGjLQXj-73" value="&lt;font style=&quot;font-size: 10px&quot;&gt;Quality usually maintained&lt;br style=&quot;font-size: 10px&quot;&gt;&lt;/font&gt;" style="rounded=0;whiteSpace=wrap;html=1;strokeWidth=3;fillColor=#FFFFFF;fontSize=10;align=center;horizontal=1;verticalAlign=middle;arcSize=6;container=0;absoluteArcSize=1;recursiveResize=0;strokeColor=#00994D;" vertex="1" parent="Zge-VtufrnMbziGjLQXj-1">
          <mxGeometry x="390" y="550" width="80" height="40" as="geometry" />
        </mxCell>
        <mxCell id="Zge-VtufrnMbziGjLQXj-74" value="&lt;font style=&quot;font-size: 10px&quot;&gt;Agile Methodology&lt;br style=&quot;font-size: 10px&quot;&gt;&lt;/font&gt;" style="rounded=0;whiteSpace=wrap;html=1;strokeWidth=2;fillColor=#E6E6E6;fontSize=10;align=center;horizontal=1;verticalAlign=middle;arcSize=6;container=0;absoluteArcSize=1;recursiveResize=0;" vertex="1" parent="Zge-VtufrnMbziGjLQXj-1">
          <mxGeometry x="490" y="200" width="80" height="40" as="geometry" />
        </mxCell>
        <mxCell id="Zge-VtufrnMbziGjLQXj-75" value="&lt;font style=&quot;font-size: 9px;&quot;&gt;&lt;font style=&quot;font-size: 9px&quot;&gt;Suitable for projects requiring handling of constant change&lt;/font&gt;&lt;br style=&quot;font-size: 9px;&quot;&gt;&lt;/font&gt;" style="rounded=0;whiteSpace=wrap;html=1;strokeWidth=1;fillColor=#FFFFFF;fontSize=9;align=center;horizontal=1;verticalAlign=middle;arcSize=6;container=0;absoluteArcSize=1;recursiveResize=0;" vertex="1" parent="Zge-VtufrnMbziGjLQXj-1">
          <mxGeometry x="490" y="250" width="80" height="40" as="geometry" />
        </mxCell>
        <mxCell id="Zge-VtufrnMbziGjLQXj-76" value="&lt;font style=&quot;font-size: 10px&quot;&gt;Applies feedback, &lt;br&gt;in next iteration&lt;br style=&quot;font-size: 10px&quot;&gt;&lt;/font&gt;" style="rounded=0;whiteSpace=wrap;html=1;strokeWidth=3;fillColor=#FFFFFF;fontSize=10;align=center;horizontal=1;verticalAlign=middle;arcSize=6;container=0;absoluteArcSize=1;recursiveResize=0;strokeColor=#00994D;" vertex="1" parent="Zge-VtufrnMbziGjLQXj-1">
          <mxGeometry x="490" y="1000" width="80" height="40" as="geometry" />
        </mxCell>
        <mxCell id="Zge-VtufrnMbziGjLQXj-77" value="&lt;font style=&quot;font-size: 10px&quot;&gt;Gets Product in front of users faster&lt;br style=&quot;font-size: 10px&quot;&gt;&lt;/font&gt;" style="rounded=0;whiteSpace=wrap;html=1;strokeWidth=3;fillColor=#FFFFFF;fontSize=10;align=center;horizontal=1;verticalAlign=middle;arcSize=6;container=0;absoluteArcSize=1;recursiveResize=0;strokeColor=#00994D;" vertex="1" parent="Zge-VtufrnMbziGjLQXj-1">
          <mxGeometry x="490" y="950" width="80" height="40" as="geometry" />
        </mxCell>
        <mxCell id="Zge-VtufrnMbziGjLQXj-78" value="&lt;font style=&quot;font-size: 9px;&quot;&gt;&lt;font style=&quot;font-size: 9px;&quot;&gt;Disproportionate input accepted from&lt;br style=&quot;font-size: 9px;&quot;&gt;&amp;nbsp;Business v. Tech&lt;/font&gt;&lt;br style=&quot;font-size: 9px;&quot;&gt;&lt;/font&gt;" style="rounded=0;whiteSpace=wrap;html=1;strokeWidth=3;fillColor=#FFFFFF;fontSize=9;align=center;horizontal=1;verticalAlign=middle;arcSize=6;container=0;absoluteArcSize=1;recursiveResize=0;strokeColor=#CC6600;" vertex="1" parent="Zge-VtufrnMbziGjLQXj-1">
          <mxGeometry x="490" y="700.2000122070312" width="80" height="40" as="geometry" />
        </mxCell>
        <mxCell id="Zge-VtufrnMbziGjLQXj-79" value="&lt;font style=&quot;font-size: 9px&quot;&gt;Common issues are poor value due&amp;nbsp;to not enough design upfront&lt;br style=&quot;font-size: 9px&quot;&gt;&lt;/font&gt;" style="rounded=0;whiteSpace=wrap;html=1;strokeWidth=3;fillColor=#FFFFFF;fontSize=9;align=center;horizontal=1;verticalAlign=middle;arcSize=6;container=0;absoluteArcSize=1;recursiveResize=0;strokeColor=#990000;" vertex="1" parent="Zge-VtufrnMbziGjLQXj-1">
          <mxGeometry x="490" y="450" width="80" height="40" as="geometry" />
        </mxCell>
        <mxCell id="Zge-VtufrnMbziGjLQXj-80" value="&lt;font style=&quot;font-size: 9px&quot;&gt;Poor manitainability due&amp;nbsp;to not&amp;nbsp;enough documentation&lt;br style=&quot;font-size: 9px&quot;&gt;&lt;/font&gt;" style="rounded=0;whiteSpace=wrap;html=1;strokeWidth=3;fillColor=#FFFFFF;fontSize=9;align=center;horizontal=1;verticalAlign=middle;arcSize=6;container=0;absoluteArcSize=1;recursiveResize=0;strokeColor=#990000;" vertex="1" parent="Zge-VtufrnMbziGjLQXj-1">
          <mxGeometry x="490" y="550" width="80" height="40" as="geometry" />
        </mxCell>
        <mxCell id="Zge-VtufrnMbziGjLQXj-81" value="&lt;font style=&quot;font-size: 9px&quot;&gt;May not add enough value per iteration to warrant going live&lt;br style=&quot;font-size: 9px&quot;&gt;&lt;/font&gt;" style="rounded=0;whiteSpace=wrap;html=1;strokeWidth=3;fillColor=#FFFFFF;fontSize=9;align=center;horizontal=1;verticalAlign=middle;arcSize=6;container=0;absoluteArcSize=1;recursiveResize=0;strokeColor=#990000;" vertex="1" parent="Zge-VtufrnMbziGjLQXj-1">
          <mxGeometry x="490" y="400" width="80" height="40" as="geometry" />
        </mxCell>
        <mxCell id="Zge-VtufrnMbziGjLQXj-82" value="&lt;font&gt;&lt;font style=&quot;font-size: 9px&quot;&gt;Managers give up responsibility of guidance&lt;/font&gt;&lt;br style=&quot;font-size: 10px&quot;&gt;&lt;/font&gt;" style="rounded=0;whiteSpace=wrap;html=1;strokeWidth=3;fillColor=#FFFFFF;fontSize=10;align=center;horizontal=1;verticalAlign=middle;arcSize=6;container=0;absoluteArcSize=1;recursiveResize=0;strokeColor=#990000;" vertex="1" parent="Zge-VtufrnMbziGjLQXj-1">
          <mxGeometry x="490" y="300" width="80" height="40" as="geometry" />
        </mxCell>
        <mxCell id="Zge-VtufrnMbziGjLQXj-83" value="&lt;font style=&quot;font-size: 10px&quot;&gt;Dev Spend &lt;u&gt;&lt;i&gt;&lt;b&gt;can&lt;/b&gt;&lt;/i&gt;&lt;/u&gt; be less (many caveats)&lt;br style=&quot;font-size: 10px&quot;&gt;&lt;/font&gt;" style="rounded=0;whiteSpace=wrap;html=1;strokeWidth=3;fillColor=#FFFFFF;fontSize=10;align=center;horizontal=1;verticalAlign=middle;arcSize=6;container=0;absoluteArcSize=1;recursiveResize=0;strokeColor=#00994D;" vertex="1" parent="Zge-VtufrnMbziGjLQXj-1">
          <mxGeometry x="490" y="1150" width="80" height="40" as="geometry" />
        </mxCell>
        <mxCell id="Zge-VtufrnMbziGjLQXj-84" value="&lt;font style=&quot;font-size: 9px&quot;&gt;Not suitable for Manual Testers&lt;br style=&quot;font-size: 9px&quot;&gt;&lt;/font&gt;" style="rounded=0;whiteSpace=wrap;html=1;strokeWidth=3;fillColor=#FFFFFF;fontSize=9;align=center;horizontal=1;verticalAlign=middle;arcSize=6;container=0;absoluteArcSize=1;recursiveResize=0;strokeColor=#00994D;" vertex="1" parent="Zge-VtufrnMbziGjLQXj-1">
          <mxGeometry x="490" y="900" width="80" height="40" as="geometry" />
        </mxCell>
        <mxCell id="Zge-VtufrnMbziGjLQXj-85" value="&lt;font style=&quot;font-size: 9px&quot;&gt;Not suitable for Manual Deployers&lt;br style=&quot;font-size: 9px&quot;&gt;&lt;/font&gt;" style="rounded=0;whiteSpace=wrap;html=1;strokeWidth=3;fillColor=#FFFFFF;fontSize=9;align=center;horizontal=1;verticalAlign=middle;arcSize=6;container=0;absoluteArcSize=1;recursiveResize=0;strokeColor=#00994D;" vertex="1" parent="Zge-VtufrnMbziGjLQXj-1">
          <mxGeometry x="490" y="850" width="80" height="40" as="geometry" />
        </mxCell>
        <mxCell id="Zge-VtufrnMbziGjLQXj-86" value="&lt;font style=&quot;font-size: 9px&quot;&gt;Requires approach change to C&amp;amp;A process&lt;br style=&quot;font-size: 9px&quot;&gt;&lt;/font&gt;" style="rounded=0;whiteSpace=wrap;html=1;strokeWidth=3;fillColor=#FFFFFF;fontSize=9;align=center;horizontal=1;verticalAlign=middle;arcSize=6;container=0;absoluteArcSize=1;recursiveResize=0;strokeColor=#808080;" vertex="1" parent="Zge-VtufrnMbziGjLQXj-1">
          <mxGeometry x="490" y="800" width="80" height="40" as="geometry" />
        </mxCell>
        <mxCell id="Zge-VtufrnMbziGjLQXj-87" value="&lt;font style=&quot;font-size: 9px&quot;&gt;Requires approach change in Change Control &amp;amp; Comms&lt;br style=&quot;font-size: 9px&quot;&gt;&lt;/font&gt;" style="rounded=0;whiteSpace=wrap;html=1;strokeWidth=3;fillColor=#FFFFFF;fontSize=9;align=center;horizontal=1;verticalAlign=middle;arcSize=6;container=0;absoluteArcSize=1;recursiveResize=0;strokeColor=#808080;" vertex="1" parent="Zge-VtufrnMbziGjLQXj-1">
          <mxGeometry x="490" y="750" width="80" height="40" as="geometry" />
        </mxCell>
        <mxCell id="Zge-VtufrnMbziGjLQXj-88" value="&lt;font style=&quot;font-size: 9px&quot;&gt;High Risk of Rework due as designs evolve&lt;br style=&quot;font-size: 9px&quot;&gt;&lt;/font&gt;" style="rounded=0;whiteSpace=wrap;html=1;strokeWidth=3;fillColor=#FFFFFF;fontSize=9;align=center;horizontal=1;verticalAlign=middle;arcSize=6;container=0;absoluteArcSize=1;recursiveResize=0;strokeColor=#990000;" vertex="1" parent="Zge-VtufrnMbziGjLQXj-1">
          <mxGeometry x="490" y="500" width="80" height="40" as="geometry" />
        </mxCell>
        <mxCell id="Zge-VtufrnMbziGjLQXj-89" value="&lt;font style=&quot;font-size: 9px&quot;&gt;High Risk of Unmaintainability&lt;br style=&quot;font-size: 9px&quot;&gt;&lt;/font&gt;" style="rounded=0;whiteSpace=wrap;html=1;strokeWidth=3;fillColor=#FFFFFF;fontSize=9;align=center;horizontal=1;verticalAlign=middle;arcSize=6;container=0;absoluteArcSize=1;recursiveResize=0;strokeColor=#990000;" vertex="1" parent="Zge-VtufrnMbziGjLQXj-1">
          <mxGeometry x="490" y="600" width="80" height="40" as="geometry" />
        </mxCell>
        <mxCell id="Zge-VtufrnMbziGjLQXj-90" value="Risk of Security Posture being incorporated late/poor value" style="rounded=0;whiteSpace=wrap;html=1;strokeWidth=3;fillColor=#FFFFFF;fontSize=9;align=center;horizontal=1;verticalAlign=middle;arcSize=6;container=0;absoluteArcSize=1;recursiveResize=0;strokeColor=#990000;" vertex="1" parent="Zge-VtufrnMbziGjLQXj-1">
          <mxGeometry x="490" y="650" width="80" height="40" as="geometry" />
        </mxCell>
        <mxCell id="Zge-VtufrnMbziGjLQXj-91" value="&lt;font style=&quot;font-size: 9px&quot;&gt;High chance of attracting modern opinions but not delivering .&lt;br style=&quot;font-size: 9px&quot;&gt;&lt;/font&gt;" style="rounded=0;whiteSpace=wrap;html=1;strokeWidth=3;fillColor=#FFFFFF;fontSize=9;align=center;horizontal=1;verticalAlign=middle;arcSize=6;container=0;absoluteArcSize=1;recursiveResize=0;strokeColor=#990000;" vertex="1" parent="Zge-VtufrnMbziGjLQXj-1">
          <mxGeometry x="490" y="350" width="80" height="40" as="geometry" />
        </mxCell>
        <mxCell id="Zge-VtufrnMbziGjLQXj-92" value="&lt;font style=&quot;font-size: 10px&quot;&gt;Teams smaller/ start sooner/ &lt;br&gt;cost&amp;nbsp; less&lt;br style=&quot;font-size: 10px&quot;&gt;&lt;/font&gt;" style="rounded=0;whiteSpace=wrap;html=1;strokeWidth=3;fillColor=#FFFFFF;fontSize=10;align=center;horizontal=1;verticalAlign=middle;arcSize=6;container=0;absoluteArcSize=1;recursiveResize=0;strokeColor=#00994D;" vertex="1" parent="Zge-VtufrnMbziGjLQXj-1">
          <mxGeometry x="490" y="1050" width="80" height="40" as="geometry" />
        </mxCell>
        <mxCell id="Zge-VtufrnMbziGjLQXj-93" value="&lt;font style=&quot;font-size: 10px&quot;&gt;Well Guided teams deliver value sooner&lt;br style=&quot;font-size: 10px&quot;&gt;&lt;/font&gt;" style="rounded=0;whiteSpace=wrap;html=1;strokeWidth=3;fillColor=#FFFFFF;fontSize=10;align=center;horizontal=1;verticalAlign=middle;arcSize=6;container=0;absoluteArcSize=1;recursiveResize=0;strokeColor=#00994D;" vertex="1" parent="Zge-VtufrnMbziGjLQXj-1">
          <mxGeometry x="490" y="1100" width="80" height="40" as="geometry" />
        </mxCell>
      </root>
    </mxGraphModel>
  </diagram>
</mxfile>
